<?xml version="1.0" encoding="UTF-8"?>
<svg id="Camada_1" data-name="Camada 1" xmlns="http://www.w3.org/2000/svg" viewBox="0 0 1080 1080">
  <defs>
    <style>
      .cls-1 {
        fill: #f5f6d5;
      }
    </style>
  </defs>
  <g>
    <path class="cls-1" d="M331.51,677.27h14.95c6.47,0,11.34,4.73,11.34,11.01s-4.87,11.01-11.34,11.01h-7.68v10.31h-7.26v-32.33ZM338.77,684.11v8.34h7.54c2.3,0,4.03-1.83,4.03-4.17s-1.73-4.17-4.03-4.17h-7.54Z"/>
    <path class="cls-1" d="M368.51,677.27h14.57c6.42,0,11.24,4.64,11.24,10.82,0,4.78-2.95,8.53-7.36,9.89l1.55,2.25c1.22,1.73,2.86,2.53,4.97,2.53h1.41v6.84h-2.2c-5.15,0-8.81-1.97-11.01-6l-3-5.06h-2.9v11.06h-7.26v-32.33ZM375.77,684.11v8.1h7.17c2.25,0,3.94-1.73,3.94-4.03s-1.69-4.08-3.94-4.08h-7.17Z"/>
    <path class="cls-1" d="M406.81,677.27h21.46v6.84h-14.2v5.81h12.65v6.84h-12.65v6h14.43v6.84h-21.69v-32.33Z"/>
    <path class="cls-1" d="M440.88,677.27h20.76v6.84h-13.49v6.14h11.67v6.84h-11.67v12.51h-7.26v-32.33Z"/>
    <path class="cls-1" d="M473.01,677.27h21.46v6.84h-14.2v5.81h12.65v6.84h-12.65v6h14.43v6.84h-21.69v-32.33Z"/>
    <path class="cls-1" d="M507.12,677.27h7.26v32.33h-7.26v-32.33Z"/>
    <path class="cls-1" d="M533.42,684.11h-8.48v-6.84h24.22v6.84h-8.48v25.49h-7.26v-25.49Z"/>
    <path class="cls-1" d="M559.47,697.04v-19.77h7.26v19.68c0,3.56,2.62,6.23,6.23,6.23s6.23-2.67,6.23-6.23v-19.68h7.26v19.77c0,7.5-5.86,13.12-13.49,13.12s-13.49-5.62-13.49-13.12Z"/>
    <path class="cls-1" d="M599.59,677.27h14.57c6.42,0,11.24,4.64,11.24,10.82,0,4.78-2.95,8.53-7.36,9.89l1.55,2.25c1.22,1.73,2.86,2.53,4.97,2.53h1.41v6.84h-2.2c-5.15,0-8.81-1.97-11.01-6l-3-5.06h-2.9v11.06h-7.26v-32.33ZM606.85,684.11v8.1h7.17c2.25,0,3.94-1.73,3.94-4.03s-1.69-4.08-3.94-4.08h-7.17Z"/>
    <path class="cls-1" d="M647.08,677.27h8.57l12.18,32.33h-7.96l-1.97-5.67h-13.17l-2.01,5.67h-7.78l12.13-32.33ZM655.52,697.23l-4.22-11.95-4.22,11.95h8.43Z"/>
    <path class="cls-1" d="M687.22,677.27h12.74c9.42,0,16.49,6.93,16.49,16.17s-7.07,16.16-16.49,16.16h-12.74v-32.33ZM694.48,684.11v18.65h5.29c5.29,0,9.23-4.03,9.23-9.32s-3.94-9.33-9.23-9.33h-5.29Z"/>
    <path class="cls-1" d="M728.3,677.27h21.46v6.84h-14.2v5.81h12.65v6.84h-12.65v6h14.43v6.84h-21.69v-32.33Z"/>
  </g>
  <path class="cls-1" d="M540.03,483.9h0c0,69.37,51.42,127.46,118.38,135.84,12.2,1.53,203.53,25.42,239.74,29.94,3.34.42,6.39-1.9,6.93-5.22,5.49-34.12,5.12-78.5-.33-111.13-.55-3.29-3.61-5.56-6.92-5.15l-221.71,27.7c-8.39,1.05-16.64-2.78-21.27-9.86-.06-.1-.13-.19-.19-.29-6.34-9.63-4.17-22.52,4.93-29.6l175.97-136.85c2.67-2.08,3.2-5.92,1.18-8.64-22.09-29.85-48.58-56.24-78.51-78.23-2.72-2-6.55-1.47-8.62,1.2l-148.8,191.33c-4.33,5.57-11.68,7.81-18.39,5.63-.08-.03-.16-.05-.24-.08-7.64-2.46-12.43-10.03-11.43-17.99l30.13-240.41c.42-3.35-1.91-6.43-5.25-6.94-38.03-5.87-75.19-5.72-111.27-.02-3.33.53-5.64,3.6-5.22,6.94l30.13,240.44c1,7.96-3.79,15.53-11.43,17.99-.08.03-.16.05-.24.08-6.71,2.17-14.06-.07-18.39-5.63l-148.8-191.33c-2.07-2.67-5.9-3.2-8.62-1.2-29.93,21.99-56.42,48.38-78.51,78.23-2.02,2.72-1.49,6.56,1.18,8.64l175.97,136.85c9.1,7.08,11.27,19.97,4.93,29.6-.06.1-.13.19-.19.29-4.63,7.08-12.88,10.9-21.27,9.86l-221.71-27.7c-3.31-.41-6.37,1.85-6.92,5.15-5.44,32.63-5.82,77.01-.33,111.13.53,3.32,3.58,5.64,6.93,5.22,36.21-4.52,227.54-28.42,239.74-29.94,66.96-8.38,118.38-66.47,118.38-135.84h.05"/>
  <g>
    <path class="cls-1" d="M184.44,753.83h51.33c15.61,0,27.62,11.11,27.62,26.57,0,9.46-4.65,17.86-11.26,21.91,9.76,3.75,16.51,14.71,16.51,27.02,0,16.36-12.46,28.07-29.27,28.07h-54.94v-103.57ZM206.96,774.84v19.51h22.96c5.4,0,9.61-4.2,9.61-9.76s-4.05-9.76-9.61-9.76h-22.96ZM206.96,814.02v22.36h26.72c6.3,0,11.11-4.8,11.11-11.11s-4.8-11.26-11.11-11.26h-26.72Z"/>
    <path class="cls-1" d="M274.44,805.61c0-30.47,23.56-53.58,54.79-53.58s54.79,23.12,54.79,53.58-23.57,53.58-54.79,53.58-54.79-23.12-54.79-53.58ZM360.15,805.61c0-17.86-13.36-31.22-30.92-31.22s-30.92,13.36-30.92,31.22,13.36,31.22,30.92,31.22,30.92-13.36,30.92-31.22Z"/>
    <path class="cls-1" d="M420.3,753.83h27.47l39.03,103.57h-25.52l-6.3-18.16h-42.18l-6.46,18.16h-24.92l38.88-103.57ZM447.32,817.77l-13.51-38.27-13.51,38.27h27.02Z"/>
    <path class="cls-1" d="M490.24,753.83h25.97l26.87,72.5,26.72-72.5h25.52l-40.53,103.57h-24.02l-40.53-103.57Z"/>
    <path class="cls-1" d="M602.95,753.83h23.26v103.57h-23.26v-103.57Z"/>
    <path class="cls-1" d="M639.54,826.33h23.87c0,6.75,7.05,12.16,15.91,12.16,7.95,0,14.56-4.2,14.56-10.06,0-16.21-52.69-9.16-52.69-44.28,0-19.51,16.36-32.12,37.23-32.12s37.82,13.51,37.82,31.52h-23.87c0-6.15-6.15-10.81-14.11-10.81-7.21,0-13.21,3.6-13.21,9.46,0,16.36,52.68,7.5,52.68,43.53,0,20.26-16.96,33.47-38.73,33.47s-39.48-14.41-39.48-32.87Z"/>
    <path class="cls-1" d="M750.38,775.74h-27.17v-21.91h77.6v21.91h-27.17v81.65h-23.27v-81.65Z"/>
    <path class="cls-1" d="M829.06,753.83h27.47l39.03,103.57h-25.52l-6.3-18.16h-42.18l-6.46,18.16h-24.92l38.88-103.57ZM856.08,817.77l-13.51-38.27-13.51,38.27h27.02Z"/>
  </g>
</svg>